<svg width="670" height="275" viewBox="0 0 670 275" fill="none" xmlns="http://www.w3.org/2000/svg">
<g id="axrk_xmas">
<path id="Combined Shape" fill-rule="evenodd" clip-rule="evenodd" d="M573.004 24H519.597L476.292 133.717H529.673C541.274 133.717 550.162 142.46 551.515 152.919L591.607 51.3427C596.787 38.2179 587.114 24 573.004 24ZM538.373 186.215H455.571L430 251H499.195C507.407 251 514.784 245.981 517.798 238.343L538.373 186.215Z" fill="#7FC2EE"/>
<path id="Combined Shape_2" fill-rule="evenodd" clip-rule="evenodd" d="M400.28 137C391.986 137 384.552 142.12 381.595 149.869L355.978 216.993L386.635 250.932H343.026L343 251H412.379C420.59 251 427.966 245.982 430.982 238.345L471 137H400.28Z" fill="#7FC2EE"/>
<path id="Rectangle Copy 2" fill-rule="evenodd" clip-rule="evenodd" d="M155.506 137H169.44C203.307 137 226.524 171.129 214.085 202.629L194.985 251H112L155.506 137Z" fill="#7FC2EE"/>
<path id="Rectangle Copy 3" d="M309.419 139H380.468L285.456 243.132C282.045 246.87 277.219 249 272.159 249H202.488L296.034 144.965C299.448 141.168 304.313 139 309.419 139Z" fill="#D0021B" stroke="#D0021B" stroke-width="4"/>
<path id="Rectangle Copy 3_2" fill-rule="evenodd" clip-rule="evenodd" d="M285 250.932H382.641L334.146 197L285 250.932Z" fill="#429321"/>
<path id="Rectangle Copy 9" fill-rule="evenodd" clip-rule="evenodd" d="M296 137H199L247.495 190.932L296 137Z" fill="#429321"/>
<path id="Rectangle Copy 4" fill-rule="evenodd" clip-rule="evenodd" d="M42.9329 203.584C45.9672 195.984 53.3245 191 61.507 191H130.925L106.983 251H53.5212C39.3772 251 29.7022 236.719 34.9471 223.584L42.9329 203.584Z" fill="#7FC2EE"/>
<path id="Rectangle Copy 5" fill-rule="evenodd" clip-rule="evenodd" d="M475.183 137H528.794C542.914 137 552.588 151.236 547.388 164.365L540.008 183H457L475.183 137Z" fill="#7FC2EE"/>
<path id="Rectangle Copy 10" fill-rule="evenodd" clip-rule="evenodd" d="M62.549 149.908C65.4955 142.138 72.9396 137 81.2495 137L151 137L133.691 183H50L62.549 149.908Z" fill="#7FC2EE"/>
<path id="Rectangle Copy 7" fill-rule="evenodd" clip-rule="evenodd" d="M557.232 149.628C560.255 142.005 567.624 137 575.824 137H646L632.768 170.372C629.745 177.995 622.376 183 614.176 183H544L557.232 149.628Z" fill="#7FC2EE"/>
<path id="Rectangle Copy 8" fill-rule="evenodd" clip-rule="evenodd" d="M543.184 186H597.022C611.279 186 620.957 200.491 615.496 213.661L600.428 250H546.979C532.8 250 523.124 235.655 528.435 222.509L543.184 186Z" fill="#7FC2EE"/>
<path id="Star 1" d="M168.591 40.7098C168.188 38.8147 170.445 37.5113 171.885 38.8077L185.128 50.732C185.772 51.3117 186.716 51.411 187.467 50.9777L202.9 42.0675C204.578 41.0987 206.515 42.843 205.727 44.613L198.479 60.8929C198.126 61.6844 198.324 62.6129 198.967 63.1926L212.211 75.1169C213.65 76.4133 212.59 78.7947 210.663 78.5922L192.94 76.7295C192.079 76.6389 191.257 77.1135 190.904 77.905L183.656 94.1849C182.868 95.9549 180.275 95.6824 179.873 93.7873L176.168 76.3561C175.987 75.5086 175.282 74.8735 174.42 74.7829L156.697 72.9202C154.771 72.7177 154.229 70.1678 155.906 69.1991L171.339 60.2888C172.09 59.8556 172.476 58.9885 172.296 58.1409L168.591 40.7098Z" fill="#D0021B"/>
<path id="Star 3" d="M411.358 38.8077C412.798 37.5113 415.056 38.8147 414.653 40.7098L410.948 58.1409C410.767 58.9885 411.154 59.8556 411.904 60.2888L427.337 69.1991C429.015 70.1678 428.473 72.7177 426.546 72.9202L408.823 74.7829C407.961 74.8735 407.256 75.5086 407.076 76.3561L403.371 93.7873C402.968 95.6824 400.375 95.9549 399.587 94.1849L392.339 77.905C391.987 77.1135 391.165 76.6389 390.303 76.7295L372.58 78.5922C370.653 78.7947 369.593 76.4133 371.033 75.1169L384.276 63.1926C384.92 62.6129 385.117 61.6844 384.765 60.8929L377.517 44.613C376.728 42.843 378.666 41.0987 380.344 42.0675L395.777 50.9777C396.527 51.411 397.471 51.3117 398.115 50.732L411.358 38.8077Z" fill="#D0021B"/>
<path id="Star 2" d="M289.719 22.6651C290.318 20.8225 292.925 20.8225 293.524 22.6651L299.031 39.6135C299.298 40.4375 300.066 40.9954 300.933 40.9954L318.753 40.9954C320.691 40.9954 321.496 43.4747 319.929 44.6135L305.512 55.0881C304.811 55.5974 304.517 56.5001 304.785 57.3242L310.292 74.2725C310.891 76.1152 308.782 77.6474 307.214 76.5086L292.797 66.0339C292.096 65.5247 291.147 65.5247 290.446 66.0339L276.029 76.5086C274.461 77.6474 272.353 76.1152 272.951 74.2725L278.458 57.3242C278.726 56.5001 278.432 55.5974 277.732 55.0881L263.314 44.6135C261.747 43.4747 262.553 40.9954 264.49 40.9954L282.311 40.9954C283.177 40.9954 283.945 40.4375 284.213 39.6135L289.719 22.6651Z" fill="#429321"/>
</g>
</svg>
