<?xml version="1.0" standalone="no"?>
<!DOCTYPE svg PUBLIC "-//W3C//DTD SVG 20010904//EN"
 "http://www.w3.org/TR/2001/REC-SVG-20010904/DTD/svg10.dtd">
<svg version="1.0" xmlns="http://www.w3.org/2000/svg"
 width="700.000000pt" height="700.000000pt" viewBox="0 0 700.000000 700.000000"
 preserveAspectRatio="xMidYMid meet">
<metadata>
Created by potrace 1.14, written by Peter Selinger 2001-2017
</metadata>
<g transform="translate(0.000000,700.000000) scale(0.100000,-0.100000)"
fill="#000000" stroke="none">
<path d="M847 5127 c16 -27 1365 -1527 1373 -1527 9 0 1380 1526 1380 1535 0
3 -621 5 -1380 5 -1149 0 -1380 -2 -1373 -13z m2393 -154 c0 -11 -1011 -1138
-1020 -1138 -9 0 -1020 1127 -1020 1138 0 4 459 7 1020 7 561 0 1020 -3 1020
-7z"/>
<path d="M3807 5129 c-20 -5 -49 -16 -64 -26 -24 -16 -2923 -3227 -2923 -3238
0 -3 525 -4 1168 -3 1139 3 1168 3 1205 23 27 13 492 516 1510 1629 810 885
1474 1613 1475 1618 5 11 -2323 8 -2371 -3z m2013 -154 c0 -6 -2654 -2913
-2682 -2937 -19 -17 -81 -18 -990 -18 -618 0 -968 3 -966 10 3 8 2522 2810
2619 2912 l36 38 991 0 c546 0 992 -2 992 -5z"/>
<path d="M4027 2637 l-704 -772 699 -3 c384 -1 1013 -1 1399 0 l701 3 -695
772 -695 772 -705 -772z m1218 -33 c281 -312 512 -571 513 -575 2 -5 -460 -9
-1033 -9 -635 0 -1035 4 -1033 9 4 12 1031 1140 1038 1141 3 0 235 -255 515
-566z"/>
</g>
</svg>
