<?xml version="1.0" standalone="no"?>
<!DOCTYPE svg PUBLIC "-//W3C//DTD SVG 20010904//EN"
 "http://www.w3.org/TR/2001/REC-SVG-20010904/DTD/svg10.dtd">
<svg version="1.0" xmlns="http://www.w3.org/2000/svg"
 width="392.000000pt" height="392.000000pt" viewBox="0 0 392.000000 392.000000"
 preserveAspectRatio="xMidYMid meet">
<metadata>
Created by potrace 1.11, written by Peter Selinger 2001-2013
</metadata>
<g transform="translate(0.000000,392.000000) scale(0.100000,-0.100000)"
fill="#000000" stroke="none">
<path d="M791 3288 c-18 -48 -203 -504 -216 -533 -7 -16 -60 -147 -118 -290
-115 -285 -162 -401 -296 -730 l-89 -220 326 -3 c179 -1 329 1 333 5 3 5 52
123 109 263 56 140 108 269 115 285 30 71 77 188 120 295 25 63 50 124 54 135
5 11 37 90 71 175 34 85 68 169 75 185 8 17 43 104 79 195 37 91 71 174 76
185 5 11 14 32 20 48 l10 27 -330 0 -330 0 -9 -22z"/>
<path d="M1110 2388 c-26 -59 -112 -275 -115 -288 -2 -8 -4 -15 -4 -15 -1 0
-53 -128 -115 -285 l-114 -285 326 -3 c179 -1 329 1 333 5 6 7 110 267 340
846 l19 47 -330 0 -330 0 -10 -22z"/>
<path d="M1800 2385 c-28 -73 -183 -453 -191 -467 -5 -10 -15 -35 -22 -55 -8
-21 -62 -157 -121 -303 -60 -146 -137 -337 -173 -425 -35 -88 -71 -176 -79
-195 -22 -51 -72 -175 -115 -282 l-19 -48 331 2 330 3 51 125 c28 69 56 139
63 155 12 27 111 270 325 800 44 110 85 209 90 220 7 16 138 339 191 473 l9
22 -330 0 -330 0 -10 -25z"/>
<path d="M2497 2403 c-3 -5 -76 -186 -162 -403 -86 -217 -165 -416 -176 -443
l-19 -47 332 2 332 3 97 245 c53 135 101 256 107 270 12 29 101 250 131 328
l21 52 -330 0 c-181 0 -331 -3 -333 -7z"/>
<path d="M3190 2384 c-17 -44 -51 -127 -67 -164 -8 -19 -67 -163 -130 -320
-63 -157 -121 -299 -129 -317 -8 -17 -14 -34 -14 -37 0 -3 -9 -25 -19 -49 -11
-23 -47 -112 -81 -197 -34 -85 -68 -168 -75 -185 -7 -16 -45 -111 -85 -210
-40 -99 -78 -194 -85 -210 -8 -17 -18 -43 -24 -58 l-11 -27 331 2 330 3 41
100 c22 55 46 114 53 130 7 17 32 77 55 135 23 58 48 119 55 135 7 17 26 64
43 105 56 142 163 405 172 425 5 11 43 103 84 205 40 102 104 259 141 350 37
91 71 175 76 188 l9 22 -330 0 -330 0 -10 -26z"/>
</g>
</svg>
