<?xml version="1.0" standalone="no"?>
<!DOCTYPE svg PUBLIC "-//W3C//DTD SVG 20010904//EN"
 "http://www.w3.org/TR/2001/REC-SVG-20010904/DTD/svg10.dtd">
<svg version="1.0" xmlns="http://www.w3.org/2000/svg"
 width="392.000000pt" height="392.000000pt" viewBox="0 0 392.000000 392.000000"
 preserveAspectRatio="xMidYMid meet">
<metadata>
Created by potrace 1.11, written by Peter Selinger 2001-2013
</metadata>
<g transform="translate(0.000000,392.000000) scale(0.100000,-0.100000)"
fill="#000000" stroke="none">
<path d="M2646 3082 c-2 -4 -35 -84 -71 -177 -132 -336 -178 -450 -190 -480
-7 -16 -36 -91 -65 -165 -29 -74 -61 -153 -71 -175 -9 -23 -20 -52 -24 -66
l-6 -26 286 -1 c303 0 319 -2 383 -49 36 -27 87 -117 76 -136 -5 -8 -4 -9 3
-2 5 6 27 55 48 110 21 55 112 287 202 515 178 450 184 470 145 547 -25 48
-56 77 -106 97 -32 13 -85 16 -322 16 -155 0 -285 -4 -288 -8z"/>
<path d="M515 1953 c-25 -7 -74 -41 -97 -68 -17 -20 -73 -152 -129 -307 l-28
-78 418 0 418 0 68 183 c37 100 74 196 80 212 30 72 65 65 -343 64 -202 -1
-376 -4 -387 -6z"/>
<path d="M1293 1903 c-12 -32 -92 -242 -179 -468 -155 -405 -192 -504 -219
-578 l-14 -37 368 0 c345 1 370 2 408 21 59 29 86 64 126 164 19 50 67 171
106 270 39 99 75 189 80 200 15 31 101 255 101 261 0 3 9 24 19 47 11 24 31
73 45 110 l25 67 -422 0 -423 0 -21 -57z"/>
<path d="M2157 1848 c-46 -116 -80 -202 -115 -296 l-20 -52 415 2 416 3 39
100 c51 128 55 190 15 257 -20 34 -40 53 -79 72 l-52 26 -287 0 -286 0 -46
-112z"/>
<path d="M3121 1938 c-61 -30 -83 -65 -160 -259 l-70 -174 361 -3 c231 -1 374
2 399 8 72 20 108 68 173 235 33 83 66 165 73 183 l13 32 -373 0 c-358 -1
-376 -2 -416 -22z"/>
<path d="M2006 1461 c-3 -4 -59 -144 -126 -312 -67 -167 -124 -310 -127 -316
-4 -10 72 -13 363 -13 339 0 372 2 410 19 59 27 91 73 142 202 25 63 71 181
103 263 33 81 59 152 59 157 0 10 -818 11 -824 0z"/>
<path d="M2864 1433 c-104 -246 -144 -359 -144 -405 0 -82 46 -150 124 -182
32 -13 85 -16 323 -16 l284 0 20 48 c11 26 24 56 29 67 5 11 21 49 35 85 15
36 34 83 44 105 55 120 47 208 -26 277 -58 55 -77 58 -388 58 l-285 0 -16 -37z"/>
<path d="M294 1401 c-23 -10 -54 -34 -69 -54 -29 -35 -109 -223 -124 -289 -13
-55 5 -119 45 -166 59 -69 79 -73 403 -70 l283 3 114 285 c62 157 116 291 119
298 3 9 -73 12 -363 12 -337 0 -370 -2 -408 -19z"/>
</g>
</svg>
